<svg xmlns="http://www.w3.org/2000/svg" version="1.1" xmlns:xlink="http://www.w3.org/1999/xlink" width="512" height="512" x="0" y="0" viewBox="0 0 64 64" style="enable-background:new 0 0 512 512" xml:space="preserve" class=""><g><path d="M50.811 48.915c-.361 0-.728-.098-1.058-.304-3.383-2.113-7.503-3.41-12.966-4.083-8.494-1.047-16.7.439-22.521 4.083a2 2 0 0 1-2.121-3.39C18.73 41.1 27.888 39.4 37.276 40.559c6.063.747 10.7 2.228 14.596 4.661a2 2 0 0 1-1.061 3.695zM31.528 23.799c-7.301 0-14.153-1.746-19.383-5.019a2 2 0 1 1 2.121-3.39c5.822 3.643 14.032 5.129 22.52 4.083 5.464-.674 9.584-1.972 12.967-4.084a1.999 1.999 0 1 1 2.119 3.392c-3.896 2.432-8.533 3.914-14.596 4.662a46.849 46.849 0 0 1-5.748.356z" fill="#ffffff" opacity="1" data-original="#000000" class=""></path><path d="M32.077 57.986c-2.355 0-4.676-.988-6.708-2.857-3.508-3.225-5.127-7.802-6.146-11.429-1.048-3.728-1.528-7.9-1.471-12.756.052-4.381.774-8.777 2.091-12.71 1.707-5.104 4.034-8.579 7.113-10.623 1.584-1.051 3.33-1.608 5.051-1.61 4.479.005 7.515 3.476 8.926 5.543 2.198 3.221 3.677 7.138 4.652 12.327 1.661 8.846.628 18.119-2.837 25.439-1.451 3.066-4.051 6.994-8.192 8.294a8.289 8.289 0 0 1-2.479.382zM32.007 10c-.929.001-1.911.327-2.839.943-2.309 1.532-4.118 4.331-5.532 8.559-1.186 3.545-1.837 7.518-1.884 11.489-.054 4.469.379 8.272 1.322 11.627.876 3.118 2.236 7.023 5.002 9.567 1.677 1.541 3.574 2.139 5.281 1.603 2.763-.867 4.665-3.844 5.775-6.188 3.111-6.575 4.03-14.955 2.521-22.99-.869-4.626-2.148-8.062-4.025-10.811-.778-1.142-2.885-3.796-5.621-3.799z" fill="#ffffff" opacity="1" data-original="#000000" class=""></path><path d="M32.009 58a2 2 0 0 1-2-2V8a2 2 0 0 1 4 0v48a2 2 0 0 1-2 2z" fill="#ffffff" opacity="1" data-original="#000000" class=""></path><path d="M56.009 34h-48a2 2 0 0 1 0-4h48a2 2 0 0 1 0 4z" fill="#ffffff" opacity="1" data-original="#000000" class=""></path><path d="M31.942 57.99h-.002c-2.273 0-4.528-.296-6.701-.881-9.363-2.519-16.696-10.276-18.68-19.763-2.02-9.665 1.711-19.825 9.505-25.884 4.507-3.503 10.19-5.433 16.004-5.433 4.025 0 8.022.936 11.56 2.705C52.363 13.105 58.009 22.237 58.009 32c0 7.966-3.759 15.644-10.055 20.538-4.522 3.516-10.21 5.452-16.012 5.452zm.125-47.961c-4.929 0-9.741 1.63-13.549 4.591-6.597 5.127-9.754 13.727-8.044 21.907 1.678 8.025 7.882 14.588 15.804 16.719a21.82 21.82 0 0 0 5.663.744h.001c4.918 0 9.732-1.637 13.557-4.61 5.328-4.142 8.51-10.64 8.51-17.38 0-8.261-4.777-15.989-12.171-19.688-2.984-1.493-6.363-2.283-9.771-2.283z" fill="#ffffff" opacity="1" data-original="#000000" class=""></path></g></svg>